<svg id="Layer_1" data-name="Layer 1" xmlns="http://www.w3.org/2000/svg" viewBox="0 0 232.548 248.41"><defs><style>.cls-1{fill:#48baeb;}.cls-2{fill:#5fc3ee;}</style></defs><title>JMarrow</title><path class="cls-1" d="M396.677,316a340.649,340.649,0,0,0,10.655,130.353c1.564,5.568,10.25,3.2,8.679-2.393A333.828,333.828,0,0,1,405.677,316c.651-5.746-8.355-5.7-9,0Z" transform="translate(-293.569 -274.153)"/><path class="cls-1" d="M417.238,445.2c-.1-37.229,1.281-80.5,34.049-104.986,4.586-3.426.1-11.243-4.542-7.771-15.3,11.434-25.742,27.436-31.592,45.532-6.991,21.626-6.975,44.74-6.915,67.225.015,5.79,9.015,5.8,9,0Z" transform="translate(-293.569 -274.153)"/><path class="cls-1" d="M445.835,334.351A213.935,213.935,0,0,0,429.949,445.5c.726,5.666,9.735,5.739,9,0a205.438,205.438,0,0,1,14.658-106.61c2.245-5.269-5.5-9.86-7.771-4.542Z" transform="translate(-293.569 -274.153)"/><path class="cls-1" d="M440.141,446.337a276.061,276.061,0,0,1,35.745-66.346c3.408-4.692-4.4-9.189-7.771-4.542a284.333,284.333,0,0,0-36.652,68.5c-2.013,5.439,6.682,7.787,8.679,2.393Z" transform="translate(-293.569 -274.153)"/><path class="cls-1" d="M467.214,375.876c-8.143,16.717-18.435,33.072-19.441,52.053-.416,7.845-1.407,17.44,2.352,24.655a15.463,15.463,0,0,0,17.535,8.027c5.61-1.427,3.232-10.109-2.393-8.679-12.935,3.29-8.673-27.463-7.28-33.716,1.476-6.625,4.716-12.585,7.666-18.641l9.332-19.158c2.526-5.186-5.232-9.754-7.771-4.542Z" transform="translate(-293.569 -274.153)"/><path class="cls-1" d="M374,319.5c.261,21.869,2.445,43.773,4.691,65.51,2.24,21.678,4.619,43.473,8.645,64.9l8.679-2.393c-3.969-14.321-12.788-29.435-25.774-37.367-5.907-3.608-13.576-4.837-19.744-1.11-5.787,3.5-8.35,10.261-9.935,16.489-1.429,5.615,7.249,8.011,8.679,2.393,1.093-4.3,2.6-10.241,7.345-11.844,5.338-1.8,10.728,2.6,14.3,6a60.414,60.414,0,0,1,16.453,27.834c1.566,5.65,9.736,3.235,8.679-2.393-3.966-21.109-6.284-42.57-8.469-63.924-2.177-21.271-4.291-42.7-4.546-64.1-.069-5.787-9.069-5.8-9,0Z" transform="translate(-293.569 -274.153)"/><path class="cls-2" d="M400.785,480.734c-.812,1.335-1.659,2.7-2.531,4.007s-1.774,2.6-2.708,3.889-1.9,2.583-2.9,3.868c-.991,1.25-2.013,2.487-3.066,3.723a108.011,108.011,0,0,0,22.356,1.9l.7,0,2.437-.125,2.684-.136,2.674-.263,2.674-.27,2.658-.395c.885-.138,1.775-.246,2.656-.407L431.06,496a108.441,108.441,0,0,0,20.519-6.289,107.09,107.09,0,0,0,35.313-23.991,108.825,108.825,0,0,0,23.2-35.87,107.737,107.737,0,0,0-26.925-118.357,108.823,108.823,0,0,0-36.426-22.3,107.2,107.2,0,0,0-42.209-6.369,108.475,108.475,0,0,0-41.4,10.5,106.916,106.916,0,0,0-34.049,25.751,108.871,108.871,0,0,0-21.37,36.988,107.625,107.625,0,0,0,6.252,83.478c.841,1.581,1.624,3.195,2.566,4.72l1.687,2.878,1.534,2.354c.518.78,1.014,1.575,1.548,2.345l1.652,2.272c3.732-.42,7.482-1.071,11.1-1.844,3.587-.743,7.207-1.739,10.653-2.816,1,1.2,2.167,2.25,3.239,3.387a114.966,114.966,0,0,1-11.522,3.658q-2.953.769-6.013,1.423c-2.021.42-4.038.77-6.11,1.1l1.838,2.278,1.946,2.186a119.454,119.454,0,0,0,23.279-7.431c1.158,1.054,2.406,2.008,3.593,3.031a120.518,120.518,0,0,1-22.85,8.662c1.339,1.425,2.813,2.709,4.244,4.038l2.94-.987c.985-.354,1.965-.723,2.933-1.1q2.9-1.122,5.687-2.34c3.72-1.636,7.374-3.517,10.8-5.439l3.91,2.643c-3.325,2.1-6.863,4.148-10.507,6q-2.713,1.359-5.552,2.631c-1.9.851-3.832,1.671-5.759,2.4.756.654,1.555,1.254,2.359,1.848l2.4,1.8-3,4.158-2.511-1.88c-.841-.621-1.677-1.25-2.469-1.934-.312,2.123-.536,4.215-.717,6.337s-.327,4.282-.427,6.466c-.175,4.332-.12,8.687.081,13.189-2.016-1.349-4.037-2.69-6.031-4.072.036-4.51.193-8.844.611-13.179q.321-3.261.764-6.428l.474-3.143.585-3.152c-1.5-1.391-3.04-2.738-4.443-4.228a135.1,135.1,0,0,0-3.8,25.74c-1.865-1.563-3.775-3.073-5.582-4.7a133.821,133.821,0,0,1,5.174-25.5l-2.037-2.29-1.925-2.385c-.724,1.979-1.436,4.016-2.076,6.06q-.932,3.043-1.759,6.2c-1.136,4.243-1.966,8.483-2.7,12.916-1.692-1.75-3.462-3.426-5.049-5.275.892-4.078,1.874-8,3.118-11.9q.908-2.906,1.9-5.71c.667-1.871,1.424-3.754,2.175-5.575l-1.778-2.449-1.659-2.531c-.546-.848-1.118-1.679-1.64-2.542l-2.15-3.664c-.979-1.661-1.813-3.4-2.725-5.1a116.393,116.393,0,1,1,127.394,61.585c-1.893.363-3.776.785-5.689,1.029-1.907.28-3.81.593-5.733.746-1.918.2-3.835.4-5.763.462l-2.888.147-.426.02h-.567a116.53,116.53,0,0,1-24.074-2c.576,1.511,1.178,3.049,1.817,4.552q.962,2.23,2.015,4.471t2.2,4.491c.763,1.491,1.562,2.931,2.388,4.4-2.495-1.068-4.913-2.36-7.288-3.576-2.372-1.237-4.664-2.643-6.918-3.961a122.428,122.428,0,0,1-12.615-9.045,112.7,112.7,0,0,1-20.025-21.259,101.9,101.9,0,0,0,26.918,1.4,95.524,95.524,0,0,0,12.491-1.89c2.026-.525,3.985-.967,5.921-1.572C397.057,482.036,398.934,481.491,400.785,480.734Z" transform="translate(-293.569 -274.153)"/></svg>