<svg id="Layer_1" data-name="Layer 1" xmlns="http://www.w3.org/2000/svg" viewBox="0 0 175.028 36.008"><defs><style>.cls-1{fill:none;stroke:#fff;stroke-miterlimit:10;stroke-width:1.629px;}</style></defs><title>whiteScrollDown</title><path class="cls-1" d="M271.977,400.231c48.348-.226,87.527,11.446,87.6,26.1" transform="translate(-271.973 -399.17)"/><path class="cls-1" d="M447,399.984c-48.349.046-87.461,11.939-87.447,26.59" transform="translate(-271.973 -399.17)"/><path class="cls-1" d="M271.977,404.532c48.348-.226,87.527,11.446,87.6,26.1" transform="translate(-271.973 -399.17)"/><path class="cls-1" d="M447,404.286c-48.349.046-87.461,11.939-87.447,26.59" transform="translate(-271.973 -399.17)"/><path class="cls-1" d="M271.977,408.833c48.348-.226,87.527,11.446,87.6,26.1" transform="translate(-271.973 -399.17)"/><path class="cls-1" d="M447,408.587c-48.349.046-87.461,11.939-87.447,26.59" transform="translate(-271.973 -399.17)"/></svg>